<svg xmlns="http://www.w3.org/2000/svg" width="54" height="40" viewBox="0 0 157 113" xmlns:xlink="http://www.w3.org/1999/xlink">
  <defs>
    <path id="a" d="M156.96 65.303V.663H0v64.64z"/>
  </defs>
  <g fill="none" fill-rule="evenodd">
    <mask id="b" fill="#fff">
      <use xlink:href="#a"/>
    </mask>
    <path fill="#FFF" d="M124.828 45.514c6.992 0 12.66-5.668 12.66-12.66 0-6.993-5.668-12.66-12.66-12.66-6.993 0-12.66 5.667-12.66 12.66 0 6.992 5.667 12.66 12.66 12.66zm-16.104-12.66c0-8.895 7.21-16.106 16.104-16.106 8.894 0 16.106 7.21 16.106 16.105s-7.212 16.105-16.106 16.105c-8.894 0-16.104-7.21-16.104-16.105zm-22.425 0c1.99-.254 5.31-2.532 6.48-3.986-.41 1.802-.45 7.02.03 8.826-1.34-2.057-4.5-4.588-6.52-4.84zm-11.58-17.05c2.53 0 4.52 2.498 4.52 5.344 0 2.847-2 5.348-4.53 5.348h-8.7V15.803h8.7zm-.03 23.755c2.53 0 4.52 2.5 4.52 5.34 0 2.85-2 5.34-4.53 5.34h-8.7V39.56h8.7zm50.12 25.74c17.72-.01 32.15-14.74 32.14-32.47 0-18.1-14.42-32.17-32.15-32.18-17.7-.01-26.75 13.02-28.98 18.28.03-7.9-7.76-17.22-16.86-17.23H49.63v63.27l27.346.01c11.026 0 18.873-9.56 18.886-17.75 2.518 5.16 11.248 18.062 28.954 18.06zM46.05 65H28.86V40.45H17.71v24.553H.063L0 1.723h17.708v23.54h11.16V1.723h17.188v63.283z" mask="url(#b)"/>
    <path stroke="#FFF" stroke-width=".75" fill="#FFF" d="M0 76.154h155.442v-1.5H0m.395 11.342h2.767l16.493 20.98v-20.98h2.88v26.18H20.18L3.273 90.71v21.466H.393v-26.18"/>
    <path stroke="#FFF" stroke-width=".75" fill="#FFF" d="M53.163 99.16v-.074c0-5.946-4.338-10.81-10.322-10.81-5.98 0-10.24 4.788-10.24 10.736v.074c0 5.946 4.34 10.808 10.33 10.808s10.25-4.787 10.25-10.733zm-23.637 0v-.074c0-7.218 5.423-13.538 13.39-13.538 7.965 0 13.313 6.245 13.313 13.464.03.037.03.037 0 .074 0 7.218-5.43 13.54-13.39 13.54S29.52 106.38 29.52 99.16z"/>
    <path stroke="#FFF" stroke-width=".75" fill="#FFF" d="M74.216 99.348c3.928 0 6.732-2.02 6.732-5.386v-.074c0-3.217-2.468-5.162-6.694-5.162h-8.078v10.622h8.04zM63.22 85.996h11.26c3.217 0 5.797.973 7.443 2.618 1.272 1.272 2.02 3.105 2.02 5.16v.077c0 4.34-2.992 6.88-7.105 7.63l8.04 10.7H81.25l-7.593-10.17h-7.48v10.18h-2.954V86z"/>
    <path stroke="#FFF" stroke-width=".75" fill="#FFF" d="M100.095 109.445c6.62 0 10.846-4.487 10.846-10.284v-.07c0-5.79-4.22-10.36-10.84-10.36h-6.13v20.72h6.14zm-9.088-23.45h9.088c8.228 0 13.913 5.65 13.913 13.017v.074c0 7.368-5.685 13.09-13.913 13.09h-9.088v-26.18z"/>
    <path stroke="#FFF" stroke-width=".75" fill="#FFF" d="M121.26 112.176h2.956v-26.18h-2.955"/>
    <path stroke="#FFF" stroke-width=".75" fill="#FFF" d="M131.47 99.16v-.074c0-7.405 5.535-13.538 13.24-13.538 4.75 0 7.59 1.682 10.21 4.15l-2.02 2.17c-2.207-2.095-4.675-3.59-8.228-3.59-5.797 0-10.135 4.712-10.135 10.734v.074c0 6.058 4.376 10.808 10.135 10.808 3.59 0 5.946-1.383 8.452-3.777l1.945 1.907c-2.73 2.768-5.73 4.6-10.48 4.6-7.56 0-13.13-5.946-13.13-13.463"/>
    <path fill="#FFF" d="M153.434 6.103c.156 0 .278-.035.367-.107.09-.07.14-.166.14-.286v-.013c0-.13-.04-.226-.13-.293-.09-.067-.21-.1-.36-.1h-.62v.8h.63zm-1.106-1.232h1.127c.327 0 .584.1.765.28.138.13.208.31.208.53v.02c0 .21-.054.37-.165.5-.11.13-.25.22-.423.27l.68.95h-.573l-.614-.87h-.525v.87h-.48V4.87zm.967 3.51c.306 0 .59-.06.856-.17.27-.11.5-.27.69-.46.2-.19.35-.42.46-.69.11-.26.17-.54.17-.84V6.2c0-.298-.06-.577-.16-.84-.11-.26-.26-.49-.45-.686-.19-.195-.42-.35-.68-.463-.26-.11-.54-.17-.85-.17-.3 0-.59.06-.85.18s-.49.27-.682.47c-.193.2-.346.43-.457.69-.11.27-.166.55-.166.85v.018c0 .3.054.58.163.84.11.26.26.49.45.687.19.194.42.35.68.46.26.115.544.17.852.17zm0 .24c-.338 0-.654-.06-.947-.19-.293-.12-.546-.3-.762-.51-.215-.22-.386-.47-.51-.76-.125-.29-.186-.6-.186-.93v-.02c0-.33.06-.63.187-.93.123-.29.296-.54.513-.76.217-.22.473-.39.77-.52.295-.13.61-.19.948-.19.337 0 .652.07.946.19.292.13.547.3.763.52.213.22.383.48.51.77.124.29.186.605.186.93v.015c0 .33-.062.64-.187.93-.126.29-.296.548-.513.768-.217.22-.473.396-.77.525-.295.127-.612.19-.948.19z"/>
  </g>
</svg>
